<svg width="116" height="26" viewBox="0 0 116 26" fill="none" xmlns="http://www.w3.org/2000/svg">
<path d="M11.444 25.408C9.336 25.408 7.45467 24.9207 5.8 23.946C4.168 22.9487 2.89867 21.6113 1.992 19.934C1.108 18.234 0.666 16.3867 0.666 14.392C0.666 12.0573 1.25533 10.0627 2.434 8.408C3.61267 6.73067 5.12 5.47267 6.956 4.634C8.81467 3.79533 10.7073 3.376 12.634 3.376C14.7873 3.376 16.68 3.886 18.312 4.906C19.944 5.90333 21.1907 7.22933 22.052 8.884C22.936 10.5387 23.378 12.2953 23.378 14.154C23.378 16.2167 22.834 18.1093 21.746 19.832C20.658 21.5547 19.196 22.9147 17.36 23.912C15.5467 24.9093 13.5747 25.408 11.444 25.408ZM12.566 24.558C13.8353 24.558 14.9687 24.1953 15.966 23.47C16.986 22.722 17.7793 21.6453 18.346 20.24C18.9127 18.812 19.196 17.112 19.196 15.14C19.196 13.0547 18.8787 11.196 18.244 9.564C17.6093 7.90933 16.6913 6.61733 15.49 5.688C14.2887 4.75867 12.8833 4.294 11.274 4.294C9.21133 4.294 7.62467 5.076 6.514 6.64C5.40333 8.18133 4.848 10.346 4.848 13.134C4.848 15.3327 5.17667 17.3047 5.834 19.05C6.514 20.7727 7.432 22.1213 8.588 23.096C9.76667 24.0707 11.0927 24.558 12.566 24.558ZM41.3172 24.592C41.3853 24.592 41.4193 24.66 41.4193 24.796C41.4193 24.932 41.3853 25 41.3172 25C40.7279 25 40.2633 24.9887 39.9233 24.966L37.8833 24.932L35.9113 24.966C35.5486 24.9887 35.0726 25 34.4833 25C34.4153 25 34.3812 24.932 34.3812 24.796C34.3812 24.66 34.4153 24.592 34.4833 24.592C35.1859 24.592 35.6619 24.4333 35.9113 24.116C36.1606 23.776 36.2853 23.1527 36.2853 22.246V17.35C36.2853 16.126 36.0586 15.2193 35.6053 14.63C35.1746 14.0407 34.4833 13.746 33.5312 13.746C32.9872 13.746 32.4206 13.8593 31.8312 14.086C31.2646 14.3127 30.7659 14.6187 30.3352 15.004V22.246C30.3352 23.1527 30.4599 23.776 30.7092 24.116C30.9812 24.4333 31.4686 24.592 32.1712 24.592C32.2393 24.592 32.2733 24.66 32.2733 24.796C32.2733 24.932 32.2393 25 32.1712 25C31.5819 25 31.1173 24.9887 30.7773 24.966L28.7373 24.932L26.7312 24.966C26.3912 24.9887 25.9266 25 25.3372 25C25.2692 25 25.2352 24.932 25.2352 24.796C25.2352 24.66 25.2692 24.592 25.3372 24.592C26.0399 24.592 26.5159 24.4333 26.7652 24.116C27.0146 23.776 27.1392 23.1527 27.1392 22.246V15.854C27.1392 15.1513 27.0486 14.6413 26.8672 14.324C26.7086 13.984 26.4479 13.814 26.0852 13.814C25.6999 13.814 25.1559 13.9727 24.4532 14.29H24.3852C24.3172 14.29 24.2606 14.2333 24.2152 14.12C24.1926 14.0067 24.2039 13.9387 24.2492 13.916L28.9752 11.604C29.1112 11.5587 29.1906 11.536 29.2132 11.536C29.4626 11.536 29.7006 11.7853 29.9272 12.284C30.1539 12.76 30.2899 13.4173 30.3352 14.256C31.8993 12.3973 33.6219 11.468 35.5033 11.468C36.7273 11.468 37.6906 11.8647 38.3932 12.658C39.1186 13.4287 39.4812 14.4487 39.4812 15.718V22.246C39.4812 23.1527 39.6059 23.776 39.8553 24.116C40.1273 24.4333 40.6146 24.592 41.3172 24.592Z" fill="white"/>
<path d="M64.0545 8.578C64.0545 8.62333 63.9865 8.65733 63.8505 8.68C63.7372 8.70267 63.6692 8.68 63.6465 8.612C63.2838 7.29733 62.6718 6.32267 61.8105 5.688C60.9492 5.05333 59.8158 4.736 58.4105 4.736H57.3905C56.7105 4.736 56.2118 4.88333 55.8945 5.178C55.5771 5.47267 55.4185 5.926 55.4185 6.538V13.882H57.8665C59.1812 13.882 60.1785 13.6553 60.8585 13.202C61.5612 12.726 61.9125 12.08 61.9125 11.264C61.9125 11.2187 61.9805 11.196 62.1165 11.196C62.2525 11.196 62.3205 11.2187 62.3205 11.264L62.2865 14.358C62.2865 15.0833 62.2978 15.6273 62.3205 15.99L62.3545 17.792C62.3545 17.86 62.2865 17.894 62.1505 17.894C62.0145 17.894 61.9465 17.86 61.9465 17.792C61.9465 16.8853 61.5838 16.1713 60.8585 15.65C60.1558 15.106 59.1472 14.834 57.8325 14.834H55.4185V22.11C55.4185 22.8127 55.5091 23.334 55.6905 23.674C55.8718 24.014 56.2118 24.252 56.7105 24.388C57.2092 24.524 57.9912 24.592 59.0565 24.592C59.1018 24.592 59.1245 24.66 59.1245 24.796C59.1245 24.932 59.1018 25 59.0565 25C58.1271 25 57.4018 24.9887 56.8805 24.966L53.4125 24.932L50.8625 24.966C50.4091 24.9887 49.7858 25 48.9925 25C48.9245 25 48.8905 24.932 48.8905 24.796C48.8905 24.66 48.9245 24.592 48.9925 24.592C49.7858 24.592 50.3638 24.5353 50.7265 24.422C51.0891 24.3087 51.3271 24.0933 51.4405 23.776C51.5765 23.436 51.6445 22.926 51.6445 22.246V6.504C51.6445 5.824 51.5878 5.32533 51.4745 5.008C51.3611 4.69067 51.1345 4.47533 50.7945 4.362C50.4545 4.226 49.9331 4.158 49.2305 4.158C49.1625 4.158 49.1285 4.09 49.1285 3.954C49.1285 3.818 49.1625 3.75 49.2305 3.75H63.6465C63.8732 3.75 63.9865 3.852 63.9865 4.056L64.0545 8.578ZM65.7702 25C65.7248 25 65.7022 24.932 65.7022 24.796C65.7022 24.66 65.7248 24.592 65.7702 24.592C66.4728 24.592 66.9488 24.4333 67.1982 24.116C67.4702 23.776 67.6062 23.1527 67.6062 22.246L67.6402 4.974C67.6402 4.18067 67.5608 3.614 67.4022 3.274C67.2662 2.934 67.0168 2.764 66.6542 2.764C66.3595 2.764 65.9288 2.88867 65.3622 3.138H65.3282C65.2602 3.138 65.1922 3.08133 65.1242 2.968C65.0788 2.832 65.0788 2.75267 65.1242 2.73L70.1222 0.383999L70.2582 0.349999C70.3715 0.349999 70.4962 0.406666 70.6322 0.519999C70.7682 0.610666 70.8362 0.701333 70.8362 0.792V22.246C70.8362 23.1527 70.9608 23.776 71.2102 24.116C71.4595 24.4333 71.9355 24.592 72.6382 24.592C72.7288 24.592 72.7742 24.66 72.7742 24.796C72.7742 24.932 72.7288 25 72.6382 25C72.0715 25 71.6182 24.9887 71.2782 24.966L69.2042 24.932L67.1642 24.966C66.8242 24.9887 66.3595 25 65.7702 25ZM85.8498 22.756C85.8951 22.756 85.9405 22.8013 85.9858 22.892C86.0538 22.9827 86.0651 23.0507 86.0198 23.096C85.1811 23.912 84.3311 24.5013 83.4698 24.864C82.6085 25.2267 81.6678 25.408 80.6478 25.408C79.2198 25.408 77.9845 25.1133 76.9418 24.524C75.8991 23.912 75.1058 23.1073 74.5618 22.11C74.0178 21.09 73.7458 20.002 73.7458 18.846C73.7458 17.5313 74.0858 16.3187 74.7658 15.208C75.4458 14.0747 76.3751 13.1907 77.5538 12.556C78.7325 11.8987 80.0471 11.57 81.4978 11.57C82.9031 11.57 83.9798 11.876 84.7278 12.488C85.4758 13.0773 85.8498 13.8933 85.8498 14.936C85.8498 15.5933 85.7251 15.922 85.4758 15.922H83.4018L77.2818 15.99C77.2138 16.4207 77.1798 16.8967 77.1798 17.418C77.1798 19.3673 77.6331 20.9087 78.5398 22.042C79.4691 23.1753 80.7385 23.742 82.3478 23.742C82.9145 23.742 83.5038 23.6627 84.1158 23.504C84.7278 23.3453 85.2831 23.1073 85.7818 22.79L85.8498 22.756ZM80.2398 12.25C79.5598 12.25 78.9705 12.522 78.4718 13.066C77.9731 13.61 77.6105 14.358 77.3838 15.31L82.2118 15.208C82.1438 13.236 81.4865 12.25 80.2398 12.25ZM98.8415 22.756C98.8869 22.756 98.9322 22.8013 98.9775 22.892C99.0455 22.9827 99.0569 23.0507 99.0115 23.096C98.1729 23.912 97.3229 24.5013 96.4615 24.864C95.6002 25.2267 94.6595 25.408 93.6395 25.408C92.2115 25.408 90.9762 25.1133 89.9335 24.524C88.8909 23.912 88.0975 23.1073 87.5535 22.11C87.0095 21.09 86.7375 20.002 86.7375 18.846C86.7375 17.5313 87.0775 16.3187 87.7575 15.208C88.4375 14.0747 89.3669 13.1907 90.5455 12.556C91.7242 11.8987 93.0389 11.57 94.4895 11.57C95.8949 11.57 96.9715 11.876 97.7195 12.488C98.4675 13.0773 98.8415 13.8933 98.8415 14.936C98.8415 15.5933 98.7169 15.922 98.4675 15.922H96.3935L90.2735 15.99C90.2055 16.4207 90.1715 16.8967 90.1715 17.418C90.1715 19.3673 90.6249 20.9087 91.5315 22.042C92.4609 23.1753 93.7302 23.742 95.3395 23.742C95.9062 23.742 96.4955 23.6627 97.1075 23.504C97.7195 23.3453 98.2749 23.1073 98.7735 22.79L98.8415 22.756ZM93.2315 12.25C92.5515 12.25 91.9622 12.522 91.4635 13.066C90.9649 13.61 90.6022 14.358 90.3755 15.31L95.2035 15.208C95.1355 13.236 94.4782 12.25 93.2315 12.25ZM115.738 24.592C115.806 24.592 115.84 24.66 115.84 24.796C115.84 24.932 115.806 25 115.738 25C115.149 25 114.684 24.9887 114.344 24.966L112.304 24.932L109.686 24.966C109.301 24.9887 108.78 25 108.122 25C108.054 25 108.02 24.932 108.02 24.796C108.02 24.66 108.054 24.592 108.122 24.592C108.938 24.592 109.346 24.354 109.346 23.878C109.346 23.6287 109.256 23.402 109.074 23.198L105.198 18.234L104.552 18.812V22.246C104.552 23.1527 104.677 23.776 104.926 24.116C105.198 24.4333 105.686 24.592 106.388 24.592C106.479 24.592 106.524 24.66 106.524 24.796C106.524 24.932 106.479 25 106.388 25C105.799 25 105.323 24.9887 104.96 24.966L102.988 24.932L100.948 24.966C100.608 24.9887 100.144 25 99.5545 25C99.5091 25 99.4865 24.932 99.4865 24.796C99.4865 24.66 99.5091 24.592 99.5545 24.592C100.257 24.592 100.733 24.4333 100.982 24.116C101.254 23.776 101.39 23.1527 101.39 22.246V4.974C101.39 4.18067 101.311 3.614 101.152 3.274C101.016 2.934 100.767 2.764 100.404 2.764C100.087 2.764 99.6565 2.88867 99.1125 3.138H99.0785C99.0105 3.138 98.9425 3.08133 98.8745 2.968C98.8291 2.832 98.8291 2.75267 98.8745 2.73L103.838 0.383999L104.008 0.349999C104.122 0.349999 104.235 0.406666 104.348 0.519999C104.484 0.610666 104.552 0.701333 104.552 0.792V18.03L107.714 14.97C108.304 14.426 108.598 13.8707 108.598 13.304C108.598 13.0093 108.485 12.7713 108.258 12.59C108.032 12.386 107.714 12.284 107.306 12.284C107.261 12.284 107.238 12.216 107.238 12.08C107.238 11.944 107.261 11.876 107.306 11.876C107.964 11.876 108.474 11.8873 108.836 11.91L111.522 11.944L114.004 11.91C114.322 11.8873 114.764 11.876 115.33 11.876C115.398 11.876 115.432 11.944 115.432 12.08C115.432 12.216 115.398 12.284 115.33 12.284C114.356 12.284 113.234 12.5333 111.964 13.032C110.718 13.508 109.596 14.2107 108.598 15.14L107.374 16.262L112.032 22.246C112.69 23.062 113.313 23.6627 113.902 24.048C114.514 24.4107 115.126 24.592 115.738 24.592Z" fill="#FF5F15"/>
</svg>
