<svg width="22" height="22" viewBox="0 0 22 22" fill="none" xmlns="http://www.w3.org/2000/svg">
<rect x="0.992188" y="0.92627" width="20.5671" height="20.5671" rx="10.2836" fill="url(#paint0_linear_126_1781)"/>
<path d="M10.6968 14.2564V8.16335C10.6968 7.5849 10.4526 7.35352 9.83558 7.35352H8.28019C7.66318 7.35352 7.41895 7.5849 7.41895 8.16335V14.2564C7.41895 14.8348 7.66318 15.0662 8.28019 15.0662H9.83558C10.4526 15.0662 10.6968 14.8348 10.6968 14.2564Z" fill="#121212"/>
<path d="M15.1314 14.2564V8.16335C15.1314 7.5849 14.8872 7.35352 14.2702 7.35352H12.7148C12.102 7.35352 11.8535 7.5849 11.8535 8.16335V14.2564C11.8535 14.8348 12.0978 15.0662 12.7148 15.0662H14.2702C14.8872 15.0662 15.1314 14.8348 15.1314 14.2564Z" fill="#121212"/>
<defs>
<linearGradient id="paint0_linear_126_1781" x1="19.6312" y1="4.13988" x2="-20.2177" y2="48.0593" gradientUnits="userSpaceOnUse">
<stop stop-color="white"/>
<stop offset="1" stop-color="white" stop-opacity="0"/>
</linearGradient>
</defs>
</svg>
