<svg width="16" height="12" viewBox="0 0 16 12" fill="none" xmlns="http://www.w3.org/2000/svg">
<path d="M4.10967 5.25268C3.94587 5.25268 3.78868 5.2771 3.63222 5.29936C3.68291 5.13273 3.73506 4.96322 3.8188 4.81095C3.90253 4.58973 4.03328 4.39796 4.1633 4.20475C4.27201 3.99574 4.46372 3.85424 4.60475 3.6754C4.7524 3.50158 4.95366 3.38594 5.11306 3.24158C5.26951 3.09074 5.47445 3.01533 5.63752 2.90903C5.80793 2.8135 5.95631 2.70792 6.11497 2.65764L6.51088 2.49819L6.85905 2.35669L6.5028 0.964722L6.06428 1.06815C5.92399 1.10263 5.75284 1.14285 5.55819 1.19097C5.35913 1.22688 5.14684 1.32528 4.91032 1.41506C4.67674 1.51706 4.40643 1.58601 4.15522 1.74977C3.90253 1.90635 3.61092 2.03707 3.35383 2.2468C3.10482 2.46299 2.8044 2.65046 2.58257 2.92555C2.34017 3.18268 2.10071 3.45274 1.91487 3.76015C1.69965 4.0532 1.55348 4.37498 1.39922 4.69316C1.25966 5.01135 1.14728 5.33671 1.05546 5.65274C0.881374 6.28624 0.803512 6.88813 0.773396 7.40312C0.748422 7.91882 0.763113 8.34762 0.793963 8.6579C0.804981 8.80443 0.825549 8.94664 0.840239 9.04504L0.858603 9.16571L0.877701 9.1614C1.00835 9.75814 1.3091 10.3065 1.74517 10.7431C2.18123 11.1797 2.73479 11.4867 3.34182 11.6285C3.94884 11.7703 4.58451 11.7411 5.17531 11.5444C5.76611 11.3477 6.28788 10.9915 6.68027 10.5169C7.07267 10.0424 7.31965 9.46889 7.39264 8.86282C7.46563 8.25674 7.36165 7.64284 7.09274 7.09213C6.82382 6.54142 6.40095 6.07641 5.87305 5.75089C5.34514 5.42537 4.73378 5.25264 4.10967 5.25268ZM12.1896 5.25268C12.0258 5.25268 11.8686 5.2771 11.7122 5.29936C11.7628 5.13273 11.815 4.96322 11.8987 4.81095C11.9825 4.58973 12.1132 4.39796 12.2432 4.20475C12.3519 3.99574 12.5437 3.85424 12.6847 3.6754C12.8323 3.50158 13.0336 3.38594 13.193 3.24158C13.3494 3.09074 13.5544 3.01533 13.7174 2.90903C13.8879 2.8135 14.0362 2.70792 14.1949 2.65764L14.5908 2.49819L14.939 2.35669L14.5827 0.964722L14.1442 1.06815C14.0039 1.10263 13.8328 1.14285 13.6381 1.19097C13.4391 1.22688 13.2268 1.32528 12.9903 1.41506C12.7574 1.51777 12.4864 1.58601 12.2351 1.75049C11.9825 1.90707 11.6909 2.03779 11.4338 2.24752C11.1848 2.46371 10.8843 2.65117 10.6625 2.92555C10.4201 3.18268 10.1806 3.45274 9.9948 3.76015C9.77958 4.0532 9.63341 4.37498 9.47916 4.69316C9.33959 5.01135 9.22721 5.33671 9.13539 5.65274C8.96131 6.28624 8.88345 6.88813 8.85333 7.40312C8.82836 7.91882 8.84305 8.34762 8.8739 8.6579C8.88491 8.80443 8.90548 8.94664 8.92017 9.04504L8.93854 9.16571L8.95763 9.1614C9.08828 9.75814 9.38903 10.3065 9.8251 10.7431C10.2612 11.1797 10.8147 11.4867 11.4217 11.6285C12.0288 11.7703 12.6644 11.7411 13.2552 11.5444C13.846 11.3477 14.3678 10.9915 14.7602 10.5169C15.1526 10.0424 15.3996 9.46889 15.4726 8.86282C15.5456 8.25674 15.4416 7.64284 15.1727 7.09213C14.9038 6.54142 14.4809 6.07641 13.953 5.75089C13.4251 5.42537 12.8137 5.25264 12.1896 5.25268Z" fill="#3E66DF"/>
</svg>
